<svg width="581" height="291" viewBox="0 0 581 291" fill="none" xmlns="http://www.w3.org/2000/svg">
<path d="M13.57 123.779C6.97661 96.2867 20.8464 65.354 49.8586 54.7662C72.7059 46.4029 107.66 43.6654 154.459 53.8072C278.269 80.6475 267.596 49.9713 315.625 26.0079C357.899 4.91588 409.547 -20.9599 499.204 27.9258C567.193 64.9971 526.956 122.815 572.849 158.28C602.364 181.09 552.572 291.534 409.566 267.56C266.56 243.585 234.145 277.216 169.415 289.605C104.295 302.061 -30.1563 227.929 6.10122 193.751C27.446 173.618 17.7111 141.063 13.57 123.779Z" fill="#Fff"/>
<path d="M61.9092 125.508C56.2657 101.968 68.1177 75.479 92.9827 66.4077C112.546 59.2656 142.477 56.9016 182.553 65.5881C288.569 88.5702 279.405 62.3042 320.561 41.7865C356.763 23.7275 400.986 1.57059 477.76 43.4256C535.977 75.1668 501.52 124.683 540.82 155.047C566.094 174.561 523.436 269.132 400.986 248.614C278.536 228.096 250.778 256.883 195.348 267.493C139.596 278.17 24.4783 214.687 55.5207 185.422C73.7923 168.188 65.4543 140.305 61.9092 125.508Z" fill="#ffcdd2"/>
</svg>