<svg xmlns="http://www.w3.org/2000/svg" fill="none" viewBox="0 0 539 420">
            <defs/>
            <g id="aiamtion 1" clip-path="url(#clip0)">
              <g id="undraw medicine b1ol 1">
                <g id="all shape">
                  <path id="Vector" fill="#F50057" d="M178.423 419.033c25.55.08 46.27-3.46 46.28-7.9 0-4.44-20.7-8.1-46.24-8.18-25.55-.08-46.27 3.45-46.28 7.9 0 4.44 20.7 8.1 46.24 8.18z" opacity=".2"/>
                  <path id="Vector 2" fill="#5E050A" d="M429.873 420.033c31.88.1 57.73-3.43 57.74-7.87 0-4.44-25.83-8.12-57.7-8.22-31.88-.1-57.74 3.43-57.75 7.87 0 4.44 25.83 8.12 57.71 8.22z" opacity=".2"/>
                  <path id="Vector 3" fill="#ffcdd2" d="M11.063 190.303l48.18.15-.15 71.09-44.65-.14-.36 2.2 45.01.14-.12 57.32-.23-.08a82.998 82.998 0 01-3.8-1.75l-.8-.4a95.568 95.568 0 01-5.1-2.85 80.358 80.358 0 01-18.9-16.07l-.48-.52c-.77-.9-1.52-1.82-2.25-2.76l-.8-1.03a90.01 90.01 0 01-2.51-3.52l-.35-.52a78.648 78.648 0 01-8.14-16l-.18-.52a72.988 72.988 0 01-2.5-8.55c-2.67-11.4-2.97-23.24-2.93-34.99v-4.11c.02-4.75.08-9.54.17-14.32 0-1.24.05-2.47.07-3.71.108-4.535.275-9.069.5-13.6.12-1.83.21-3.65.33-5.46h-.01z" opacity=".2"/>
                  <path id="Vector 4" fill="#ffcdd2" d="M59.403 111.313l-26.42-.08a216.91 216.91 0 0114.1-20.9c3.94-5.22 8.1-10.3 12.4-15.18l-.07 36.16h-.01z" opacity=".2"/>
                  <path id="Vector 5" fill="#ffcdd2" d="M59.403 113.513l-.15 74.74-48.03-.14c0-.22.03-.44.05-.66l.14-1.76c.05-.7.1-1.39.17-2.06l.2-2.24.23-2.24c.08-.75.15-1.5.24-2.23.09-.74.16-1.5.26-2.23l.22-1.85.35-2.6c0-.13.04-.26.06-.39.88-6.31 2.07-12.57 3.57-18.75a146.696 146.696 0 016-19 147.27 147.27 0 019-18.65l27.7.06h-.01z" opacity=".2"/>
                  <path id="Vector 7" fill="#a4243b" d="M59.333 151.213l-.08 37.04-48.03-.14c0-.22.03-.44.05-.66l.14-1.76c.05-.7.1-1.39.17-2.06l.2-2.24.23-2.24c.08-.75.15-1.5.24-2.23.09-.74.16-1.5.26-2.23l.22-1.85.35-2.6c0-.13.04-.26.06-.39.88-6.31 2.07-12.57 3.57-18.75l42.62.1v.01z" opacity=".2"/>
                  <path id="Vector 8" fill="#a4243b" d="M11.063 190.303l48.18.15-.15 71.09-44.65-.14-.36 2.2 45.01.14-.12 57.32-.23-.08a82.998 82.998 0 01-3.8-1.75l-.8-.4a95.568 95.568 0 01-5.1-2.85 80.358 80.358 0 01-18.9-16.07l-.48-.52c-.77-.9-1.52-1.82-2.25-2.76l-.8-1.03a90.01 90.01 0 01-2.51-3.52l-.35-.52a78.648 78.648 0 01-8.14-16l-.18-.52a72.988 72.988 0 01-2.5-8.55c-2.67-11.4-2.97-23.24-2.93-34.99v-4.11c.02-4.75.08-9.54.17-14.32 0-1.24.05-2.47.07-3.71.108-4.535.275-9.069.5-13.6.12-1.83.21-3.65.33-5.46h-.01z" opacity=".2"/>
                  <path id="Vector 9" fill="#a4243b" d="M107.113 124.353l-.13 64.05-36.23-.11.13-64.05 5.17.02.04-21.69 21.2.06-.04 21.69 9.86.03z" opacity=".2"/>
                  <path id="Vector 10" fill="#a4243b" d="M106.973 190.593l-36.22-.1-.15 71.08 36.22.1.15-71.08z" opacity=".2"/>
                  <path id="Vector 11" fill="#a4243b" d="M70.603 263.773l36.22.11-.12 59.1a88.183 88.183 0 01-13.04 2.95l-1.08.14-1.58.18c-.53.06-1.07.1-1.6.13h-.16l-.7.03h-.24c-.29 0-.57.03-.86.04-.4.02-.8.03-1.22.03h-3.36l-.91-.05c-.48 0-1-.06-1.48-.1l-.92-.07-1.13-.12c-.8-.07-1.59-.18-2.37-.3l-.95-.14-.48-.08a65.664 65.664 0 01-2.37-.44l-1.75-.38.1-61.03z" opacity=".2"/>
                  <path id="Vector 12" fill="#a4243b" d="M333.583 117.483l-29.87-.1-.15 71.62 29.87.09.15-71.61z" opacity=".2"/>
                  <path id="Vector 13" fill="#a4243b" d="M333.433 191.293l-.15 71.09-148.26-.46.06-30.66 78.97.24-.04 18.09 39.42.12.12-58.51 29.88.09z" opacity=".2"/>
                  <path id="Vector 14" fill="#a4243b" d="M333.593 340.803h-.48l-.1 46.63a246.84 246.84 0 01-103.99-34.38 238.288 238.288 0 01-36.1-26.76c-1.57-1.4-3.13-2.85-4.7-4.25-1.1-.97-2.2-1.92-3.32-2.82l.11-55.1 118 .36 30.26.1-.16 76.18c.16 0 .32.02.48.04z" opacity=".2"/>
                  <path id="Vector 15" fill="#a4243b" d="M411.493 112.383l-19.46-.06v-6.54l8.73.03.04-19.5c.76.3 1.51.6 2.26.92l-.04 18.58 8.48.03-.01 6.54z" opacity=".2"/>
                  <path id="Vector 16" fill="#a4243b" d="M458.223 189.483l-95.55-.3.03.03-.04-.03-17.73-.05.15-71.61 5.02.02-.1 52.92 22.95.08.06-31.35 18.96.06.06-24.73 19.46.06-.05 24.75 18.96.06-.07 31.34 27.93.09-.04 18.66z" opacity=".2"/>
                  <path id="Vector 17" fill="#a4243b" d="M344.933 191.323l-.15 71.1 113.29.34.15-71.09-113.3-.35h.01zm143.72 155.21l.27-56.27-30.9-.1.04-25.17-113.28-.35-.26 123.59c9.29.45 18.59.36 27.87-.27h.16c4.43-.3 8.84-.72 13.23-1.28h.1a228.91 228.91 0 0068.02-19.43" opacity=".2"/>
                  <path id="Vector 18" fill="#a4243b" d="M333.543 137.393l-16-.05-.05 22.45 16 .05.05-22.45z" opacity=".2"/>
                  <path id="Vector 19" fill="#a4243b" d="M333.443 183.923l-16-.04-.01 5.16 16 .05.01-5.17z" opacity=".2"/>
                  <path id="Vector 20" fill="#a4243b" d="M333.433 191.293l-16-.05-.04 15.08 16 .05.04-15.08z" opacity=".2"/>
                  <path id="Vector 21" fill="#a4243b" d="M333.353 230.463l-16-.05-.06 22.45 16 .05.06-22.45z" opacity=".2"/>
                  <path id="Vector 22" fill="#a4243b" d="M333.253 277.003l-16-.05-.05 22.45 16 .05.05-22.45z" opacity=".2"/>
                  <path id="Vector 23" fill="#a4243b" d="M333.113 340.763c.16 0 .32 0 .48.04h-.48l-.01 5.21-16-.05.05-22.48 16 .05-.04 17.23z" opacity=".2"/>
                  <path id="Vector 24" fill="#a4243b" d="M333.053 370.053l-.04 17.35a240.4 240.4 0 01-16-2.05l.04-15.34 16 .05v-.01z" opacity=".2"/>
                  <path id="Vector 25" fill="#a4243b" d="M253.603 260.483l-68.58-.2v1.64l68.58.21v-1.65z" opacity=".2"/>
                  <path id="Vector 26" fill="#a4243b" d="M253.603 264.333l-68.59-.21-.01 6.32 68.58.2.02-6.31z" opacity=".2"/>
                  <path id="Vector 27" fill="#a4243b" d="M253.543 291.373l-68.59-.21-.02 10.16 68.59.21.02-10.16z" opacity=".2"/>
                  <path id="Vector 28" fill="#a4243b" d="M253.473 322.253l-.02 10.16-53.64-.16a239.342 239.342 0 01-6.9-5.95c-1.56-1.4-3.12-2.85-4.7-4.25l65.26.2z" opacity=".2"/>
                  <path id="Vector 29" fill="#a4243b" d="M253.403 353.133l-.02 10.15-5.66-.01a245.351 245.351 0 01-18.7-10.23l24.39.09h-.01z" opacity=".2"/>
                  <path id="Vector 30" fill="#a4243b" d="M386.293 198.353l-13.5-.05-.04 14.61 13.5.04.04-14.6z" opacity=".2"/>
                  <path id="Vector 31" fill="#a4243b" d="M94.103 129.353l-13.5-.04-.03 14.61 13.5.05.03-14.62z" opacity=".2"/>
                  <path id="Vector 32" fill="#a4243b" d="M94.033 163.303l-13.5-.04-.03 14.61 13.5.04.03-14.61z" opacity=".2"/>
                  <path id="Vector 33" fill="#a4243b" d="M93.963 197.253l-13.5-.05-.03 14.62 13.5.04.03-14.62v.01z" opacity=".2"/>
                  <path id="Vector 34" fill="#a4243b" d="M93.893 231.193l-13.5-.05-.03 14.62 13.5.04.03-14.61z" opacity=".2"/>
                  <path id="Vector 35" fill="#a4243b" d="M93.823 265.133l-13.5-.04-.03 14.62 13.5.04.03-14.62z" opacity=".2"/>
                  <path id="Vector 36" fill="#a4243b" d="M93.753 299.083l-13.5-.04-.03 14.61 13.5.04.03-14.61z" opacity=".2"/>
                  <path id="Vector 37" fill="#a4243b" d="M437.833 198.503l-13.5-.04-.03 14.61 13.5.04.03-14.61z" opacity=".2"/>
                  <path id="Vector 38" fill="#a4243b" d="M386.213 234.393l-13.5-.04-.03 14.61 13.5.04.03-14.61z" opacity=".2"/>
                  <path id="Vector 39" fill="#a4243b" d="M437.753 234.553l-13.5-.04-.03 14.61 13.5.04.03-14.61z" opacity=".2"/>
                  <path id="Vector 40" fill="#a4243b" d="M386.143 270.433l-13.5-.04-.04 14.62 13.5.04.04-14.62z" opacity=".2"/>
                  <path id="Vector 41" fill="#a4243b" d="M437.683 270.593l-13.5-.04-.03 14.61 13.5.04.03-14.61z" opacity=".2"/>
                  <path id="Vector 42" fill="#a4243b" d="M386.063 306.483l-13.5-.04-.03 14.61 13.5.04.03-14.61z" opacity=".2"/>
                  <path id="Vector 43" fill="#a4243b" d="M437.603 306.643l-13.5-.04-.03 14.61 13.5.04.03-14.61z" opacity=".2"/>
                  <path id="Vector 44" fill="#a4243b" d="M385.993 342.533l-13.5-.04-.03 14.61 13.5.04.03-14.61z" opacity=".2"/>
                  <path id="Vector 45" fill="#a4243b" d="M437.533 342.693l-13.5-.05-.03 14.62 13.5.04.03-14.61z" opacity=".2"/>
                  <path id="Vector 46" fill="#a4243b" d="M372.393 387.953l.02-9.42 13.5.04-.02 8.08-13.5 1.3z" opacity=".2"/>
                  <path id="Vector 47" fill="#a4243b" d="M13.083 169.853l-.02 8.35 46.2.15.03-8.37-46.2-.14-.01.01zm4.59 7.84h-3.77l.02-7.33 3.8.01-.05 7.33v-.01zm4.6.02l-3.8-.01.02-7.33 3.8.02-.02 7.32zm4.59.01h-3.8l.02-7.33 3.8.01-.02 7.32zm4.6.02l-3.8-.01.02-7.33 3.8.01-.02 7.33zm4.6.01l-3.8-.01.01-7.32h3.8l-.01 7.33zm4.6.01h-3.8l.01-7.33 3.8.01-.01 7.32zm4.6.02l-3.8-.01.01-7.32h3.8l-.01 7.33zm4.6.01h-3.8v-7.34l3.8.01v7.33zm4.59.02l-3.8-.01.01-7.33 3.8.01-.01 7.33zm4.6.01l-3.8-.01v-7.32h3.8v7.33z" opacity=".1"/>
                  <path id="Vector 48" fill="#F10606" d="M13.033 194.173l-.02 8.36 46.2.14.03-8.36-46.21-.14zm4.59 7.85l-3.77-.01.01-7.3h3.8l-.04 7.3v.01zm4.6.01l-3.8-.01.02-7.3h3.8l-.02 7.31zm4.59.01h-3.8l.02-7.3h3.8l-.02 7.3zm4.6.02l-3.8-.01.02-7.3h3.8l-.02 7.3v.01zm4.6.01h-3.8l.01-7.31 3.8.01-.02 7.3h.01zm4.6.02l-3.8-.01.01-7.3h3.8l-.02 7.3.01.01zm4.6.01l-3.8-.01.01-7.3h3.8l-.01 7.31zm4.59.01h-3.8l.02-7.3h3.8l-.02 7.3zm4.6.02l-3.8-.01.01-7.3h3.8l-.01 7.3v.01zm4.6.01h-3.8v-7.31l3.8.01v7.3z" opacity=".1"/>
                  <path id="Vector 49" fill="#F10606" d="M12.983 218.513l-.02 8.37 46.2.14.02-8.37-46.2-.14zm4.59 7.84h-3.77l.01-7.32 3.8.02-.04 7.3zm4.6.02l-3.8-.01.02-7.31 3.8.01-.02 7.3v.01zm4.59.01l-3.8-.01.02-7.3h3.8l-.02 7.31zm4.6.02l-3.8-.02.02-7.3h3.8l-.02 7.32zm4.6.01l-3.8-.01.01-7.3h3.8l-.02 7.31h.01zm4.6.01h-3.8l.01-7.31h3.8l-.02 7.31h.01zm4.6.02l-3.8-.01.01-7.31 3.8.01-.02 7.3.01.01zm4.59.01l-3.8-.01.02-7.3h3.8l-.02 7.31zm4.6.02l-3.8-.02.01-7.3h3.8l-.01 7.32zm4.59.01l-3.8-.01.02-7.3h3.8l-.02 7.31z" opacity=".1"/>
                  <path id="Vector 50" fill="#F10606" d="M12.933 242.853l-.02 8.34 46.2.15.02-8.35-46.2-.14zm4.59 7.84l-3.77-.01.01-7.31h3.8l-.04 7.32zm4.6.01h-3.8l.01-7.32 3.8.01-.01 7.31zm4.59.02l-3.8-.01.02-7.32 3.8.02-.02 7.3v.01zm4.6.01h-3.8l.02-7.32 3.8.01-.02 7.31zm4.6.02l-3.8-.02.01-7.3h3.8l-.02 7.32h.01zm4.6.01l-3.8-.01.01-7.31h3.8l-.02 7.32h.01zm4.6.01h-3.8l.01-7.32 3.8.01-.02 7.31h.01zm4.59.02l-3.8-.01.02-7.32 3.8.02-.02 7.3v.01zm4.6.01h-3.8l.01-7.32 3.8.01-.02 7.31h.01zm4.59.02l-3.8-.02.02-7.3h3.8l-.02 7.32z" opacity=".1"/>
                  <path id="Vector 51" fill="#F10606" d="M13.083 267.183c.18.78.39 1.57.6 2.35v-1.83l3.8.01v7.31h-2.05l.18.51 43.45.13.01-8.34-46-.14h.01zm9 7.86l-3.8-.01.02-7.31h3.8l-.02 7.32zm4.6.01l-3.8-.01v-7.3h3.8v7.31zm4.6.01h-3.82l.02-7.31h3.8v7.31zm4.59.02l-3.8-.01.01-7.31 3.8.01-.01 7.3v.01zm4.6.01h-3.8l.01-7.32 3.8.01-.01 7.31zm4.6.02l-3.8-.02.01-7.3 3.8.01-.01 7.3v.01zm4.6.01l-3.8-.01.01-7.3h3.8l-.02 7.31h.01zm4.59.01h-3.8l.02-7.31h3.8l-.02 7.31zm4.6.02l-3.8-.01.01-7.31 3.8.01-.02 7.3.01.01z" opacity=".1"/>
                  <path id="Vector 52" fill="#F10606" d="M23.763 291.553l.35.51 2.51.01v3.51c.26.35.53.7.8 1.03l.01-4.56 3.8.01-.01 7.34h-1.54c.15.16.3.34.47.5l28.88.1.02-8.35-35.3-.1h.01zm12.04 7.86l-3.8-.01.02-7.3h3.8l-.02 7.31zm4.6.02l-3.8-.02.02-7.3 3.8.01-.02 7.3v.01zm4.6 0h-3.8l.02-7.3h3.8l-.02 7.3zm4.6.02h-3.8l.02-7.31 3.8.01-.02 7.3zm4.6.02l-3.8-.01.01-7.3h3.8l-.02 7.3.01.01zm4.59.01l-3.8-.01.02-7.3h3.8l-.02 7.31z" opacity=".1"/>
                  <path id="Vector 53" fill="#F10606" d="M49.053 315.953l1.32.8v-.26h3.8v2.32l.8.4v-2.71l3.8.01v4.45c.07.04.14.07.22.09l.01-5.06-9.95-.03v-.01z" opacity=".1"/>
                  <path id="Vector 54" fill="#F10606" d="M362.673 189.183h.03-.03zm-29.57 151.58h.48-.48zm-30.35-77.26l.25.98-.25-.98zm59.9-74.33h.04-.04zm-286.55-77.83l-.01 2.2 21.2.06.01-2.2-21.2-.06zm257 229.42h.48-.48zm-30.35-77.26l.25.98-.25-.98zm59.9-74.33h.04-.04zm-29.55 151.57h.48-.48zm-30.35-77.24l.25.98-.25-.98z" opacity=".1"/>
                  <path id="Vector 55" fill="url(#paint0_linear)" d="M223.583 212.273s-1.87-.3-1.86-3.24c0-2.95-1.32-8.46-1.32-8.46 0-.03-1.14-9.6-2.74-11.13-1.6-1.52-3.63-10.46-3.63-10.46s-.34-4.85-1.06-5.9c-.71-1.04-1.68-3.6-3.1-7.24-1.42-3.65-7.37-6.2-7.37-6.2s-10.76-6.79-13.8-9c-.28-.18-.54-.4-.78-.64-.53-.75-2.84-.78-2.84-.78a54.33 54.33 0 01-.54-5.28c0-.18 0-.37-.03-.55 3.41-2.17 5.98-5.6 7.24-9.65l.16-.6c.2-.07.4-.18.55-.34.16-.15.3-.34.38-.56.28-.66.28-1.43.63-2.05.4-.73 1.16-1.12 1.76-1.66 1.5-1.39 1.9-3.72 1.84-5.85-.05-1.72-.3-3.46-.2-5.17l.03-.43.1-.76c.24-1.28.75-2.48 1.04-3.74.29-1.27.32-2.69-.34-3.78-.97-1.6-3-1.92-4.78-2.1-2.02-.19-3.82.05-5.1-1.77-.61-.95-1.29-1.84-2.03-2.66-.27-.27-2.85-1.98-2.85-2.1a10.74 10.74 0 00-8.04-.69c-1.34.42-2.6 1.1-3.97 1.44-2.93.74-6.3-.08-8.79 1.73-1.38 1.02-2.22 2.65-3 4.24-.64 1.31-1.28 2.62-1.94 3.93-1.05 2.15-2.12 4.33-2.57 6.72-.1.52-.15 1.04-.17 1.57v.84c0 .18 0 .35.02.51l.04.32.07.52c.02.16.08.45.14.67l.08.29c.05.17.1.34.17.51l.1.27c.07.18.16.35.24.51l.1.2c.14.25.28.48.44.7 1.01 1.37 2.5 2.25 3.61 3.54v.58c.05 2.86.75 5.67 2.03 8.18a17.152 17.152 0 005.34 6.2l.03.6c.09 1.523.07 3.05-.06 4.57-.2-.25-.44-.44-.71-.58-.27-.13-.57-.2-.87-.19-.2 0-.4.01-.6.06l-.05-.04v.05c-1.04.27-2.33 1.45-3.57 4.79 0 0-3.75 4.55-6.6 4.35-2.85-.2-10.07 4.72-10.07 4.72s-7.04 4.92-8.56 9.95a73.843 73.843 0 01-3.05 8.36l-8.74 19.37-1.63 15.39s.87 6.84.7 7.89c-.19 1.04 3.62 10.46 3.62 10.46s12.6 24.08 17.76 25.33l.37-.28c.22.13.45.22.7.28l1.06-.8c.06.9.03 1.81-.09 2.7-.72 2.38.23 17.88 1.47 20.92 1.24 3.04.71 42.86.71 42.86l-.18 3.51s0 .12.04.31l-.04.83.12.07c.13 1.12.09 2.25-.13 3.35-.45 1.54-.64 5.9-.64 5.9s-3.6 24.6-1.93 29.54c1.67 4.95 3.1 10.37 3.1 10.37s1.76 6.17.06 7.22c-1.7 1.05-6.51 2.8-5.53 5.37.9 2.38 4.31 8.75 4.82 9.68l-.05.5-.71 8.18c.1 1.08.38 2.13.8 3.12.75 1.79 2.24 3.64 5.06 3.45.47-.03 1.03-.1 1.56-.17 5.17-.73 11.54-3.21 11.54-3.21a4.811 4.811 0 01-.9-.81 2.855 2.855 0 01-.79-2.06c.08-1.49-2.48-8.6-3.12-10.35l-.15-.4s5.89-6.63 4.92-12.52c0 0-6.49-4.13-4.34-6.38 2.14-2.25 5.98-8.72 5.98-8.72s.23-24.23.06-27.85c-.18-2.5-.06-5.03.34-7.51.07-.38.16-.74.25-1.1 2.96.48 5.95.74 8.94.76 1.1 0 2.2 0 3.33-.06.227 7.19.587 14.374 1.08 21.55.52 5.6 3.42 20.72 3.42 20.72s-5.61 3.88.95 13.5c0 0 0 3.48-.44 3.98a46.662 46.662 0 00-1.14 5.01c-.28 1.81-.4 3.64.05 4.6 1.06 2.27 7.47 2.1 7.47 2.1l.16-.03c1.21-.13 2.43 0 3.6.38a9.004 9.004 0 013.18 1.86c2.43 2.12 11.67 1.22 16.68.56 1.96-.26 3.27-.5 3.27-.5.07-.24.09-.5.07-.74-.05-1.33-1-4.25-7.53-6.88 0 0-6.14-4.49-6.04-8.38h-.84c.51-.04.85 0 .85 0s-2.4-9.52-1.4-10.29c.98-.77-1.94-11.3-1.94-11.3s-1.65-17.7-1.74-18.93c0-1.06.16-2.12.45-3.13l-.42-9.7s-.08-3.22 0-4.27c0-.9-.07-1.81-.2-2.71l-.12-1.11c2.3-.63 3.8-1.2 3.8-1.2l-.2-33.74c1.97-4.1 2.34-13.13 2.35-19.52 0-4.11-.16-7.16-.16-7.16l2.69-4.71s.62-5.65-.35-6.9c-.43-.55-.24-1.13.12-1.61.19-.16.38-.3.59-.43l-.07-.12c.2-.16.39-.31.6-.45 0 0-.95-1.6-.1-2.27.8.6 1.51 1.04 2.05 1.4-.04.37-.08.59-.08.59l.23-.51.84.51s4.2-9.01 4.12-10.35c-.09-1.33 2.86-6.92 2.86-6.92s.37-2.95 1.97-4.18c1.61-1.22 1.27-10.16 1.27-10.16s.45-4.66 1.53-6.56c1.07-1.9-.97-4.46-.97-4.46zm-80.1-4.21l.07 2.15-.81-1.42.74-.73z"/>
                  <path id="Vector 56" fill="#fff" d="M213.043 251.003l-1.04 4.73s-8.2-4.57-9.67-10.34c-1.47-5.77 2.5-7.94 2.5-7.94l7.64 3.53.57 10.02z"/>
                  <path id="Vector 57" fill="#000" d="M213.043 251.003l-1.04 4.73s-8.2-4.57-9.67-10.34c-1.47-5.77 2.5-7.94 2.5-7.94l7.64 3.53.57 10.02z" opacity=".1"/>
                  <path id="Vector 58" fill="#fff" d="M166.613 411.753s-7.6 3-12.82 3.37c-2.78.2-4.23-1.65-4.97-3.43a11.03 11.03 0 01-.78-3.1l.7-8.15.36-4.34 11.1-3.08 1.56 5.2.15.4c.63 1.74 3.15 8.81 3.07 10.29a3 3 0 00.77 2.03c.25.31.54.59.86.82v-.01z"/>
                  <path id="Vector 59" fill="#fff" d="M218.503 407.783c.02.24 0 .5-.06.73 0 0-16.26 2.88-19.57-.06a8.622 8.622 0 00-3.2-1.88 8.175 8.175 0 00-3.63-.3s-6.29.16-7.33-2.09c-.44-.94-.32-2.76-.05-4.56.28-1.68.65-3.35 1.12-4.99l.25-.21 1.5-1.3 17.5-.5h.14c-.1 3.87 5.92 8.33 5.92 8.33 6.4 2.6 7.34 5.5 7.41 6.83z"/>
                  <path id="Vector 60" fill="#000" d="M218.503 407.783c.02.24 0 .5-.07.73 0 0-16.25 2.88-19.56-.06a8.614 8.614 0 00-3.2-1.87 8.149 8.149 0 00-3.63-.32s-6.29.17-7.33-2.08c-.43-.94-.32-2.76-.05-4.56 2.42.27 6.24.93 7.74 2.5 2.26 2.37 6.1 4.75 8.46 4.94 1.85.13 12.9.55 17.64.72z" opacity=".1"/>
                  <path id="Vector 61" fill="#000" d="M166.613 411.753s-7.6 3-12.82 3.37c-2.78.2-4.23-1.65-4.97-3.43 1.93.7 4.61 1.46 6.02.78 1.67-.8 7.6-1.3 10.92-1.5.26.3.54.56.85.79v-.01z" opacity=".1"/>
                  <path id="Vector 62" fill="#CF6F80" d="M178.393 168.293c-6.26-2.65-14.3-11.39-12.28-15.45.45-1.02.72-2.13.79-3.26.13-1.54.15-3.09.06-4.63a68.448 68.448 0 00-.82-7.53s19.56.54 18.42 3.66c-.34.91-.4 2.5-.3 4.28.08 1.78.31 3.79.56 5.49.33 2.33.67 4.11.67 4.11s-1.2 1.81-1.9 1.9c-.7.1 3.78 15.22-5.2 11.44v-.01z"/>
                  <path id="Vector 63" fill="#000" d="M161.903 398.623l-.15.18c-5.83-7.68-12.93 1.84-12.93 1.84l-.1-.2.37-4.34 11.1-3.08 1.56 5.2.15.4z" opacity=".1"/>
                  <path id="Vector 64" fill="#000" d="M205.173 393.153s-4.27-.1-6.56 2.07c-2.28 2.17-13.29.43-12.81-.04.14-.24.22-.5.25-.78l1.5-1.3 17.5-.5.12.56v-.01z" opacity=".1"/>
                  <path id="Vector 65" fill="#9C050E" d="M169.313 332.923c-.32.85-.56 1.73-.73 2.63-.4 2.47-.51 4.98-.34 7.48.17 3.6-.06 27.7-.06 27.7s-3.77 6.42-5.86 8.68c-2.1 2.26 4.26 6.35 4.26 6.35.93 5.86-4.83 12.46-4.83 12.46-5.84-7.67-12.93 1.86-12.93 1.86s-3.83-7.21-4.78-9.78c-.96-2.58 3.76-4.34 5.42-5.38 1.66-1.04-.07-7.2-.07-7.2s-1.39-5.39-3.04-10.3c-1.65-4.93 1.9-29.4 1.9-29.4s.19-4.35.62-5.86c.22-1.1.27-2.22.14-3.33l-.09-.9-.04-.31.07-.12 2.38-4.79s19.13 7.2 17.98 10.2v.01z"/>
                  <path id="Vector 66" fill="#9C050E" d="M205.173 392.593s-4.27-.1-6.55 2.04c-2.29 2.14-13.3.43-12.82-.04.47-.47.44-3.97.44-3.97-6.44-9.57-.92-13.43-.92-13.43s-2.85-15.04-3.36-20.62c-.36-3.9-.79-14.36-1.02-20.34l-.16-4.33 5.28-1.14.68-.15 12.74-2.72s.35 2.57.58 4.67c.12.9.18 1.8.2 2.7-.1 1.04-.01 4.25-.01 4.25l.4 9.65a11.795 11.795 0 00-.43 3.12c.08 1.23 1.7 18.82 1.7 18.82s2.86 10.5 1.88 11.25c-.99.75 1.37 10.24 1.37 10.24z"/>
                  <path id="Vector 67" fill="#000" d="M184.563 141.083c-.34.91-.4 2.5-.3 4.28a15.309 15.309 0 01-8.7 2.5 15.397 15.397 0 01-8.6-2.9 68.206 68.206 0 00-.82-7.53s19.56.52 18.42 3.65z" opacity=".1"/>
                  <path id="Vector 68" fill="#CF6F80" d="M192.143 129.753c0 1.85-.27 3.69-.8 5.44a17.392 17.392 0 01-6.91 9.47 15.225 15.225 0 01-10.92 2.42 15.954 15.954 0 01-9.8-5.77 18.421 18.421 0 01-4.05-11.24v-.43c-.03-2.33.37-4.65 1.17-6.81.8-2.17 2-4.14 3.52-5.8a16.213 16.213 0 015.3-3.87 15.154 15.154 0 0112.57.04c1.99.9 3.79 2.23 5.3 3.9a17.787 17.787 0 013.49 5.82c.8 2.17 1.18 4.5 1.14 6.82l-.01.01z"/>
                  <path id="Vector 69" fill="#000" d="M178.393 168.293c-6.26-2.65-14.3-11.38-12.28-15.45.45-1.02.71-2.13.79-3.26l8.56 7.65 5.3 4.73 4.06-11.1c.33 2.33.67 4.1.67 4.1s-1.2 1.82-1.9 1.91c-.7.1 3.78 15.2-5.2 11.43v-.01z" opacity=".1"/>
                  <path id="Vector 70" fill="#9C050E" d="M200.503 202.093l-7.43 130.24-9.35.64-24.03-75.61 4.16-89.67.87-18.94 10.74 9.6 5.3 4.73 4.18-11.44 7.7 7.31 7.86 43.14z"/>
                  <path id="Vector 71" fill="#000" d="M169.313 332.923c-.32.85-.56 1.73-.73 2.63a65.172 65.172 0 01-19.57-6.68l-.13-.07.05-.83.02-.43 2.39-4.78s19.12 7.14 17.97 10.16z" opacity=".1"/>
                  <path id="Vector 72" fill="#000" d="M186.163 335.633c-1.74.31-3.49.52-5.25.63l-.16-4.34 5.29-1.14.12 4.85z" opacity=".1"/>
                  <path id="Vector 73" fill="#000" d="M200.033 332.593c-3.38.94-8.59 1.99-13.25 1.3l-.06-3.25 12.73-2.73s.35 2.55.58 4.68z" opacity=".1"/>
                  <path id="Vector 74" fill="#000" d="M186.693 334.493c-19.47 3.54-37.28-6.83-37.28-6.83l.18-3.5s.52-39.6-.7-42.65c-1.21-3.04-2.13-18.44-1.44-20.8.7-2.36-2.45-37.82-2.45-37.82l-.49-14.4-19.1-8.43 8.59-19.26a72.867 72.867 0 002.99-8.31c1.5-5 8.4-9.9 8.4-9.9s7.09-4.89 9.88-4.7c2.8.2 6.47-4.32 6.47-4.32 2.73-7.46 5.17-4.07 5.17-4.07 0 .35 0 0-.14 1.1-.96 8.2 15.28 34.14 15.52 34.6l1.46 40.94 1.47 51.81 1.47 56.54z" opacity=".1"/>
                  <path id="Vector 75" fill="#fff" d="M186.173 334.493c-19.47 3.54-37.28-6.83-37.28-6.83l.18-3.5s.52-39.6-.7-42.65c-1.22-3.04-2.14-18.44-1.44-20.8.7-2.37-2.45-37.82-2.45-37.82l-.5-14.4-19.1-8.46 8.58-19.26a74.235 74.235 0 003-8.31c1.48-5 8.4-9.9 8.4-9.9s7.08-4.9 9.87-4.7c2.8.2 6.47-4.32 6.47-4.32 2.73-7.46 5.7-4.07 5.7-4.07 0 .35-.28.51-.13 1.1 2.07 7.96 14.76 34.14 15 34.6l1.48 40.94 1.46 51.8 1.46 56.58z"/>
                  <path id="Vector 76" fill="#000" d="M181.233 186.333c-2.1-.95-13.15-14.69-13.15-14.69v-3.12c-.4-1.02-2.8-.4-4.74.3l.87-18.94.95.86c2.06 7.95 15.83 35.14 16.07 35.6v-.01z" opacity=".1"/>
                  <path id="Vector 77" fill="#fff" d="M181.763 185.203c-2.1-.95-13.16-14.69-13.16-14.69v-3.12c-.4-1.03-2.8-.4-4.74.3l.88-18.94.95.86c2.06 7.95 15.84 35.14 16.07 35.6v-.01z"/>
                  <path id="Vector 78" fill="#000" d="M149.573 253.453c.26 0 13.53-1.47 13.53-1.47s8 17.14 7.47 21.3c-.53 4.16-1.5 7.84-4.73 7.18-3.23-.67-17.4.46-17.4.46l1.13-27.47z" opacity=".1"/>
                  <path id="Vector 79" fill="#fff" d="M149.043 252.323c.26 0 13.54-1.47 13.54-1.47s8 17.13 7.47 21.29c-.53 4.16-1.5 7.84-4.73 7.18-3.23-.66-17.4.46-17.4.46l1.12-27.46z"/>
                  <path id="Vector 80" fill="#CF6F80" d="M159.063 244.323s12.17 7.12 12.42 9.28c.26 2.17-6.2-.96-7.59-1.34-.92-.24-1.85-.4-2.8-.48l-9.3.24 7.27-7.7z"/>
                  <path id="Vector 81" fill="#000" d="M177.833 187.213c.7 0 1.28-.62 1.28-1.38 0-.77-.57-1.4-1.28-1.4-.7 0-1.28.62-1.28 1.39 0 .76.57 1.39 1.28 1.39z" opacity=".1"/>
                  <path id="Vector 82" fill="#3F3D56" d="M177.833 186.653c.7 0 1.28-.62 1.28-1.39 0-.77-.57-1.39-1.27-1.4-.71 0-1.29.63-1.29 1.4 0 .76.57 1.38 1.28 1.38v.01z"/>
                  <path id="Vector 83" fill="#000" d="M180.063 247.283c.71 0 1.28-.62 1.29-1.39 0-.76-.57-1.38-1.28-1.39-.71 0-1.28.62-1.29 1.39 0 .76.57 1.38 1.28 1.39z" opacity=".1"/>
                  <path id="Vector 84" fill="#3F3D56" d="M180.063 246.713c.71 0 1.29-.62 1.29-1.39 0-.76-.57-1.39-1.28-1.39-.7 0-1.28.62-1.28 1.39 0 .76.57 1.38 1.27 1.39z"/>
                  <path id="Vector 85" fill="#000" d="M179.043 217.253c.71 0 1.29-.62 1.29-1.39 0-.77-.57-1.39-1.28-1.4-.71 0-1.28.63-1.29 1.4 0 .76.58 1.38 1.28 1.38v.01z" opacity=".1"/>
                  <path id="Vector 86" fill="#3F3D56" d="M179.043 216.683c.71 0 1.29-.62 1.29-1.38 0-.77-.57-1.4-1.28-1.4-.7 0-1.28.62-1.28 1.39 0 .76.57 1.39 1.27 1.39z"/>
                  <path id="Vector 87" fill="#fff" d="M208.523 251.643s.87 1.42 0 2.08c-.88.66.07 2.26.07 2.26s-2.18 1.38-1.22 2.62c.95 1.25.34 6.87.34 6.87l-2.64 4.69s.16 3.02.16 7.11c-.02 6.38-.38 15.36-2.3 19.44l.19 33.56s-9.19 3.6-16.87 2.47l-1.02-53.85s1.72-30.54 2.35-36.4c.36-3.03.52-6.1.45-9.17 0 0-.24-9.16-1.1-13.42 0 0-.92-18.44-1-23.54-.04-2.44.1-9.56.24-16.34.16-7.4.34-14.38.34-14.38l-1.7-14.85s1.73-.18 2.25.57c.24.24.5.45.76.64 2.99 2.2 13.54 8.96 13.54 8.96s5.85 2.54 7.24 6.15c1.4 3.6 2.36 6.17 3.04 7.2.67 1.03 1.03 5.86 1.03 5.86s2 8.9 3.57 10.4c1.56 1.52 2.7 11.1 2.7 11.1l-13.93 11.78s-1.26 19.66-1.52 20.41c-.26.77 5.02 17.78 5.02 17.78h.01z"/>
                  <path id="Vector 88" fill="#fff" d="M209.043 251.643s.87 1.42 0 2.08c-.87.66.08 2.26.08 2.26s-2.17 1.4-1.22 2.64c.94 1.25.33 6.86.33 6.86l-2.63 4.7s.15 3.02.16 7.11c-.01 6.38-.38 15.35-2.3 19.44l.18 33.56s-9.2 3.6-16.86 2.47l-1.03-53.86s1.73-30.53 2.35-36.39c.37-3.04.52-6.1.46-9.17 0 0-.25-9.17-1.11-13.42 0 0-.91-18.44-1-23.54-.04-2.44.1-9.57.24-16.34.16-7.4.34-14.39.34-14.39l-2.25-15.04s2.29 0 2.81.77c.23.24.49.45.76.63 2.99 2.2 13.54 8.97 13.54 8.97s5.84 2.53 7.24 6.15c1.39 3.6 2.36 6.17 3.04 7.2.68 1.03 1.03 5.86 1.03 5.86s2 8.9 3.56 10.4c1.57 1.52 2.69 11.08 2.69 11.08l-13.91 11.78s-1.27 19.65-1.53 20.41c-.27.76 5.03 17.78 5.03 17.78z"/>
                  <path id="Vector 89" fill="#000" d="M192.593 170.033l1.24 3.96-6.61 7.18c.16-7.4.34-14.39.34-14.39l-2.26-15.05s2.3.01 2.82.78c.23.24.48.45.75.63l5.58 17.54-1.86-.65z" opacity=".1"/>
                  <path id="Vector 90" fill="#fff" d="M192.063 168.903l1.25 3.96-6.61 7.17c.16-7.4.34-14.39.34-14.39l-2.26-15.04s2.3 0 2.81.77c.23.24.49.45.76.63l5.58 17.54-1.87-.64z"/>
                  <path id="Vector 91" fill="#000" d="M192.143 129.753c0 1.85-.27 3.69-.8 5.44a.664.664 0 01-.51-.14c-.12-4.62-2.22-8.97-4.8-12.67-.72-1.12-1.6-2.11-2.6-2.94a4.846 4.846 0 00-3.54-1.1c-1.42.21-2.69 1.26-4.12 1.39-1.9.16-3.6-1.27-5.48-1.35-.77 0-1.53.2-2.22.54-.7.34-1.32.85-1.82 1.47a12.308 12.308 0 00-2.17 4.34 27.29 27.29 0 00-1.22 7.47c-.03 1.44-.16 3.25-1.4 3.77a8.26 8.26 0 00-1.77-5.87l-.03-.03v-.43c-.03-2.33.37-4.65 1.17-6.81.8-2.17 2-4.14 3.52-5.8a16.213 16.213 0 015.3-3.87 15.154 15.154 0 0112.57.04c1.99.9 3.79 2.23 5.3 3.9a17.787 17.787 0 013.49 5.82c.8 2.17 1.18 4.5 1.14 6.82l-.01.01z" opacity=".1"/>
                  <path id="Vector 92" fill="#0C1323" d="M182.693 101.803a10.404 10.404 0 00-7.9-.7c-1.3.42-2.55 1.1-3.88 1.44-2.85.74-6.17-.08-8.62 1.72-1.36 1.02-2.18 2.64-2.94 4.22l-1.91 3.9c-1.04 2.15-2.1 4.32-2.53 6.68-.43 2.36-.18 5 1.2 6.9 1 1.38 2.49 2.26 3.58 3.56a8.303 8.303 0 011.77 5.86c1.24-.5 1.36-2.31 1.4-3.75.05-2.55.46-5.07 1.21-7.48.44-1.6 1.18-3.07 2.17-4.33a5.463 5.463 0 011.82-1.48c.7-.34 1.45-.53 2.22-.53 1.9.08 3.6 1.5 5.48 1.33 1.42-.12 2.69-1.17 4.12-1.37a4.82 4.82 0 013.54 1.1c1 .82 1.88 1.81 2.6 2.93 2.59 3.7 4.68 8.04 4.8 12.68.53.43 1.3-.13 1.57-.78.27-.66.28-1.43.62-2.06.39-.72 1.13-1.1 1.72-1.65 1.48-1.37 1.86-3.7 1.8-5.81-.05-2.12-.42-4.26-.05-6.33.23-1.28.73-2.47 1.01-3.73.28-1.25.32-2.67-.33-3.75-.95-1.6-2.95-1.92-4.69-2.07-1.98-.2-3.75.04-5-1.77-.6-.94-1.26-1.83-2-2.65-.25-.27-2.78-1.97-2.78-2.08z"/>
                  <path id="Vector 93" fill="#000" d="M130.863 210.003l-4.94-9.94-1.6 15.31s.86 6.81.68 7.85c-.18 1.05 3.56 10.41 3.56 10.41s12.35 23.95 17.42 25.2l17.14-13.18-4.53-6.25s-1.57-.67-1.96-.01c0 0-8.4-15.72-9.27-16.86-.87-1.14-.7-3.4-.7-3.4s-1.3-1.52-.86-2.93c.44-1.42-2.52-6.35-2.52-6.35l2.71-2.73-15.13 2.88z" opacity=".1"/>
                  <path id="Vector 94" fill="#fff" d="M126.193 198.933l-1.32 1.13-1.6 15.31s.86 6.8.68 7.85c-.18 1.04 3.56 10.4 3.56 10.4s12.35 23.96 17.42 25.21l17.14-13.19-4.53-6.25s-1.57-.66-1.96 0c0 0-8.4-15.72-9.27-16.86-.87-1.14-.69-3.4-.69-3.4s-1.3-1.52-.87-2.94c.44-1.41-2.52-6.34-2.52-6.34l2.72-2.73-18.76-8.19z"/>
                  <path id="Vector 95" fill="#000" d="M207.373 259.193c.94 1.25.33 6.86.33 6.86l-2.63 4.69s.16 3.03.16 7.11l-4.41 1.48a2.42 2.42 0 01-2.36-.45 2.805 2.805 0 01-.78-1.04c-.18-.41-.27-.86-.25-1.31l.81-26.52 10.27 4.29c-.87.65.08 2.27.08 2.27s-2.18 1.37-1.22 2.62z" opacity=".1"/>
                  <path id="Vector 96" fill="#fff" d="M207.903 258.623c.94 1.25.33 6.86.33 6.86l-2.63 4.7s.15 3.02.16 7.11l-4.5 1.5a2.364 2.364 0 01-2.3-.45 2.76 2.76 0 01-.76-1.01c-.18-.4-.26-.84-.25-1.28l.82-26.6 10.28 4.28c-.88.66.07 2.27.07 2.27s-2.17 1.38-1.22 2.62z"/>
                  <path id="Vector 97" fill="#CF6F80" d="M211.333 245.993s-.71 4.82-2.46 5.1c-1.75.28-2.55 7.8-4.29 7.53-1.74-.28-.57-7-.5-8.3.06-1.3-1.9-6.72-.42-7.94 1.47-1.23 6.1.01 6.1.01l1.57 3.6z"/>
                  <path id="Vector 98" fill="#000" d="M215.123 208.853l3.31-7.19s1.3 5.49 1.3 8.42c-.01 2.93 1.82 3.22 1.82 3.22s2 2.57.94 4.44c-1.06 1.87-1.5 6.52-1.5 6.52s.33 8.89-1.25 10.11c-1.57 1.23-1.9 4.16-1.9 4.16s-2.9 5.57-2.81 6.9c.08 1.32-4.04 10.28-4.04 10.28s2.03-11.15-9.66-16c0 0-.08-3.8.79-4.83.88-1.03 2.24-1.5 1.4-6.75-.85-5.25-.23-11.52-.22-12.78 0-1.25 2.64-9.1 2.64-9.1l9.18 2.6z" opacity=".1"/>
                  <path id="Vector 99" fill="#fff" d="M216.563 200.633l2.88 1.03s1.3 5.49 1.3 8.42c-.01 2.93 1.82 3.22 1.82 3.22s2 2.58.94 4.44c-1.06 1.87-1.5 6.53-1.5 6.53s.33 8.88-1.24 10.1c-1.57 1.23-1.93 4.16-1.93 4.16s-2.9 5.57-2.8 6.9c.08 1.32-4.05 10.28-4.05 10.28s2.04-11.14-9.66-16c0 0-.08-3.79.8-4.82.87-1.04 2.24-1.5 1.4-6.76-.85-5.25-.23-11.51-.23-12.77 0-1.26 2.64-9.1 2.64-9.1l9.63-5.63z"/>
                  <path id="Vector 100" fill="#000" d="M152.633 386.903s4.6-3.1 7.6-.83c3 2.28-7.6.83-7.6.83z" opacity=".1"/>
                  <path id="Vector 101" fill="#000" d="M188.283 377.373s4.06-.56 7.46 3.43c3.4 3.98-7.46-3.44-7.46-3.44v.01z" opacity=".1"/>
                  <g id="Group" fill="#000" opacity=".1">
                    <path id="Vector 102" d="M194.743 128.883c-.59.54-1.34.93-1.73 1.65-.34.62-.35 1.38-.61 2.05-.27.66-1.05 1.2-1.58.78-.11-4.62-2.21-8.96-4.79-12.66-.72-1.12-1.6-2.11-2.6-2.94a4.846 4.846 0 00-3.54-1.1c-1.42.21-2.68 1.25-4.12 1.38-1.9.16-3.6-1.27-5.48-1.34-.76 0-1.52.18-2.22.53-.7.34-1.3.85-1.8 1.47a12.199 12.199 0 00-2.18 4.32 27.209 27.209 0 00-1.22 7.47c-.04 1.43-.16 3.21-1.39 3.74.03.38.03.76 0 1.14 1.23-.5 1.36-2.31 1.4-3.75.05-2.54.47-5.06 1.22-7.46a12.213 12.213 0 012.17-4.33 5.44 5.44 0 011.81-1.47c.7-.34 1.45-.53 2.22-.53 1.9.08 3.6 1.5 5.48 1.34 1.42-.12 2.69-1.17 4.12-1.37a4.823 4.823 0 013.54 1.1c1 .82 1.88 1.81 2.6 2.93 2.58 3.7 4.67 8.03 4.78 12.66.54.43 1.31-.12 1.58-.78.27-.65.28-1.42.61-2.05.4-.72 1.15-1.1 1.73-1.64 1.49-1.38 1.86-3.7 1.81-5.8v-.2c-.1 1.82-.55 3.68-1.81 4.86z" opacity=".1"/>
                    <path id="Vector 103" d="M159.703 128.403c-1.1-1.3-2.58-2.18-3.58-3.56a7.934 7.934 0 01-1.37-4.21 8.402 8.402 0 001.37 5.34c1 1.39 2.48 2.26 3.57 3.56a8.059 8.059 0 011.78 4.6 8.288 8.288 0 00-.35-3.07 7.91 7.91 0 00-1.43-2.66h.01z" opacity=".1"/>
                    <path id="Vector 104" d="M197.503 113.003c-.28 1.26-.78 2.45-1.01 3.72-.14.85-.19 1.7-.15 2.57.01-.5.06-.98.15-1.46.23-1.27.73-2.46 1.01-3.72.16-.7.22-1.41.16-2.13-.03.34-.08.69-.16 1.02z" opacity=".1"/>
                  </g>
                  <g id="Group 1">
                    <path id="Vector 105" fill="url(#paint1_linear)" d="M473.843 255.763s-7.77-42.08-4.75-47.3c0 0 .12-4.86-.05-11.06v-.72c.53.39 1.08.73 1.65 1.03 2.77 1.54 5.95 2 8.99 1.28l-2.37-2.86a4.828 4.828 0 01-1.29-2.32c-.12-.9.22-1.7.52-2.51 2.27-6.14 2.4-13.86-1.94-18.57-3.67-3.95-4.55-9.04-8.53-12.66-2.91-2.64-4.51-6.51-6.02-10.25-1.27-3.17-2.55-6.36-3.28-9.7-.56-2.63-.79-5.33-1.56-7.9-.78-2.55-2.25-5.04-4.55-6.19-.81-.4-1.72-.64-2.47-1.18-.97-.71-1.56-1.87-2.27-2.89-3.6-5.13-15.66-2.15-21.37-.09-1.56.52-3 1.38-4.23 2.51l.05-.1.14-.22a7.907 7.907 0 00-1.6 1.91c-.83 1.42-1.19 3.07-1.88 4.6-.85 1.82-5.51 6.88-3.51 8.93.14.14.3.25.47.33.75.34 1.58.43 2.38.26l-.09.22a15.952 15.952 0 00-1.04 5.68c-.02 8.4 6.41 15.25 14.37 15.27 1.5.01 2.99-.23 4.42-.72l.09.59c0 .08.02.15.03.23l-.25.38a.486.486 0 00-.04-.07l-7.5 11.21c-1.14.86-7.73 5.96-8.1 9.8-.4 4.2-.8 9.12-.8 9.12l-.06 1.06a2.85 2.85 0 01-2.38.68c-2.33-.41-2.35 9.21-2.35 9.21s-1.55 1.53-2.62.2c-1.06-1.34-3.89 3.17-3.89 3.17l-17.65.76-.4.03-.95-3.18c-.1-.33-.32-.6-.61-.77a1.16 1.16 0 00-1.16.01l-.06.04-.13.1-.06.05a1.044 1.044 0 00-.1.11l-.05.07-.03.03a1.347 1.347 0 00-.18 1.15l.82 2.72c-3.41.73-6.9 2.8-4.07 8.53l-14.39-2.9 4.65 4.22 24.03 5.41c-.32.61-.1 1.5.88 2.76 4.27 5.43 12.07 6.92 15.21 7.31.83 2 1.86 3.9 3.08 5.64l-.28 5.4s-8.04 41.06-9.5 43.14c.74-.9 1.41-1.84 2.02-2.84-2.33 8.43-5.57 19.98-6.43 21.7-1.36 2.77-2.65 13.95-1.1 14.67.48.23 1.84.12 3.78-.03v.93l-.16 35.12s.35 21.54-.73 23.59c-1.07 2.05-1.37 6.35-1.37 6.35s-4.3 8.48-7.7 11.89a.463.463 0 01-.07.07l-.1-.8s-4.1 5.53-13.12 5.19c0 0-5.43 3.78 2.62 4.01 8.05.23 18.33-.25 18.33-.25s7.2-11.76 13.22-10.2l-.02 8.92h1.84l.02-9.06a7.812 7.812 0 002.15-2.3c.56-.92.95-1.95 1.14-3.03a6.936 6.936 0 00-.33-3.31 6.5 6.5 0 00-1.81-2.7 4.11 4.11 0 01-1.17-2.8l-.07.05c0-.18-.04-.36-.06-.55-.52-4.61-1.16-14.12 1.2-21.15 3.21-9.64 4.21-23.07 1.9-31.07a76.102 76.102 0 01-2-8.75c1.6.24 3.18.59 4.73 1.04 5.4 1.62 17.21 1.95 27.3 1.9l.08.92c.18 2.17.55 4.32 1.11 6.41 1.26 4.1 1.8 22.16 1.8 22.16s1.6 14.86.7 20.9c-.48 3.36-.97 6.73-1.25 10.12v.06s-2.69 8.19-4.65 12.63l-.15.33c-.52.05-1.03.17-1.53.36 0 0-2.63 5.63-5.24 6.55-2.62.92-1.76 4 4.16 2.88 5.91-1.1 14.85-2 14.85-2l.4-5.74 1.82-2.44-.5 5.73 1.95-.4-.25-6.98 2.99-4s3.6-3.42-1.73-10.2v.14c-.06-.1-.1-.2-.17-.3v-.02c-.88-1.48-1.58-4.23-.28-9.1 2.35-8.81 3.72-16.81 3.72-16.81s5.25-21.42-.98-31.58h.27a18.025 18.025 0 01-1.42-5.08c4.63-.28 9.18-1.16 12.89-3.1-.02-.02-2.14-50.9-3.97-59v-.02zm-58.7-35.66v.1l-.96.05.96-.15zm-3.27.48c-.15.03-.3.11-.43.22a4.758 4.758 0 00-.75 2.1l-1.48-.36s-1.04-.25-2.54-.52l-.7-.77c1.94-.17 3.97-.42 5.9-.67z"/>
                    <path id="Vector 106" fill="#1D2366" d="M460.523 394.903l-.58 7.28 1.9-.4-.27-7.9-1.05 1.02z"/>
                    <path id="Vector 107" fill="#FFB0B1" d="M417.383 360.193c-2.3 7.04-1.67 16.54-1.17 21.15.19 1.71.36 2.75.36 2.75s-3.43 8.4-3.71 8.73c-.29.31-10.06 6.73-10.06 6.73l-6.83 4.3s-6.92-3.31-3.6-4.43c.68-.3 1.3-.74 1.8-1.32 3.32-3.4 7.51-11.89 7.51-11.89s.3-4.3 1.35-6.35.71-23.6.71-23.6l.16-35.12v-4.58l12.99.14c.08 1.56.26 3.1.55 4.63a75.704 75.704 0 001.8 7.8c2.26 8.01 1.29 21.43-1.86 31.06z"/>
                    <path id="Vector 108" fill="#000" d="M416.573 384.093s-3.43 8.4-3.71 8.73c-.29.31-10.06 6.73-10.06 6.73l-6.83 4.3s-6.92-3.31-3.6-4.43c.68-.3 1.3-.74 1.8-1.32l.28 2.25 2.28-.1 19.5-18.9c.17 1.7.34 2.74.34 2.74z" opacity=".1"/>
                    <path id="Vector 109" fill="#9C050E" d="M416.343 381.833l-19.61 19.03-2.28.1-.47-3.6s-3.99 5.52-12.82 5.19c0 0-5.32 3.78 2.55 4 7.86.24 17.9-.24 17.9-.24s7.05-11.8 12.92-10.24l-.02 8.92h1.8l.02-9c.84-.6 1.56-1.4 2.11-2.31a8.475 8.475 0 001.1-3.02 7.031 7.031 0 00-.31-3.3 6.571 6.571 0 00-1.77-2.71 4.161 4.161 0 01-1.12-2.81v-.01z"/>
                    <path id="Vector 110" fill="#FFB0B1" d="M462.383 371.313c-1.28 4.88-.6 7.63.27 9.1v.03a17.638 17.638 0 012.25 6l.08.47-8.94 14.03-4.83 2.04s-7.77-2.9-6.35-3.71c.36-.2.92-1.27 1.56-2.75 1.9-4.43 4.54-12.63 4.54-12.63v-.06c.28-3.39.73-6.76 1.22-10.12.88-6.05-.68-20.9-.68-20.9s-.54-18.05-1.76-22.16a36.425 36.425 0 01-1.1-6.4c-.25-2.57-.3-4.69-.3-4.69s5.14-7.69 14.5.66c.75.67 1.4 1.45 1.95 2.31 6.46 10 1.2 31.97 1.2 31.97s-1.32 7.99-3.61 16.8v.01z"/>
                    <path id="Vector 111" fill="#000" d="M465.003 386.913l-8.94 14.03-4.84 2.04s-7.76-2.9-6.34-3.71c.35-.2.91-1.27 1.55-2.75 3.29-.02 4.99 3.38 4.99 3.38l4.17-.7s5.52-11.68 6.75-12.4c1.24-.7.2-5.33.2-5.33v-1.18l.1.13v.03a17.62 17.62 0 012.26 6l.1.46z" opacity=".1"/>
                    <path id="Vector 112" fill="#9C050E" d="M451.703 400.203s-2.36-4.72-6.91-3c0 0-2.57 5.65-5.13 6.56-2.57.9-1.72 4 4.07 2.88 5.78-1.1 14.5-2 14.5-2l.4-5.75 5.89-8.1s3.5-3.42-1.7-10.2v1.18s1.04 4.62-.2 5.33c-1.23.72-6.73 12.4-6.73 12.4l-4.19.7z"/>
                    <path id="Vector 113" fill="#000" d="M416.903 316.693c.08 1.56.26 3.1.55 4.63-5.34-.87-10.3-.46-13.56-.2l.01-4.57 13 .14z" opacity=".1"/>
                    <path id="Vector 114" fill="#000" d="M465.323 323.813s-7.6.38-16.66.44c-.25-2.57-.3-4.7-.3-4.7s5.13-7.69 14.5.67c.75.67 1.4 1.44 1.95 2.3.15.44.32.88.5 1.3l.01-.01z" opacity=".1"/>
                    <path id="Vector 115" fill="#9C050E" d="M465.323 322.893s-33.27 1.64-43.4-1.47c-10.14-3.11-20.2-.47-21.7-1.2-1.52-.71-.27-11.9 1.07-14.66 1.33-2.77 8.68-30.75 8.68-30.75l7.1-39.58 7.4-2.19.52-.15 12.89-3.8 9.44-2.8s18.6 79.36 16.98 85.2c-.59 2.25-.69 4.6-.29 6.89.24 1.56.68 3.08 1.31 4.5v.01z"/>
                    <path id="Vector 116" fill="#C7DAF5" d="M392.673 208.073s-6.66 7.69-1.64 12c5.02 4.31 8.34.44 8.34.44l-6.7-12.44z"/>
                    <path id="Vector 117" fill="#000" d="M392.673 208.073s-6.66 7.69-1.64 12c5.02 4.31 8.34.44 8.34.44l-6.7-12.44z" opacity=".1"/>
                    <path id="Vector 118" fill="#FFB0B1" d="M446.473 157.553l-1.95 1.99a277.12 277.12 0 01-6.35 6.2c-3.05 2.86-5.56 4.96-4.66 3.17.9-1.8.74-4.92.3-7.85l-.1-.58a57.533 57.533 0 00-1.45-6.35s4.92-6.85 7.65-9.55c1-1.03 1.72-1.45 1.76-.73.04.96.7 3.08 1.53 5.34l.07.2a187.65 187.65 0 003.2 8.16z"/>
                    <path id="Vector 119" fill="#000" d="M443.273 149.403a15.774 15.774 0 01-3.25 7.23 14.053 14.053 0 01-6.21 4.43 57.41 57.41 0 00-1.55-6.93s9.27-12.9 9.4-10.28c.04.99.76 3.2 1.61 5.55z" opacity=".1"/>
                    <path id="Vector 120" fill="#000" d="M432.883 164.513l1.2-1.82s.78 5.24 3.7 2.94c2.92-2.3 3.02 17.37 3.02 17.37l-3.23 50.63-22.6-1.54.69-24.46 2.58-12.33 6.37-17.9 3.78-5.92 4.5-6.97h-.01z" opacity=".1"/>
                    <path id="Vector 121" fill="#9C050E" d="M440.803 183.323l-2.94 45.77-.31 4.85-12.6-.86-.48-.03-9.49-.64.7-24.47 2.58-12.33 6.36-17.9 3.78-5.92 4.5-7 1.2-1.8s.78 5.22 3.7 2.93l.06-.05c2.85-1.94 2.94 17.45 2.94 17.45z"/>
                    <path id="Vector 122" fill="#fff" d="M418.583 191.333s-1.14 2.56-3.42 2.14c-2.27-.43-2.29 9.24-2.29 9.24s-1.51 1.54-2.56.2c-1.04-1.34-3.8 3.17-3.8 3.17l-17.26.77s7.67 3.82 6.15 15.3c0 0 26.06-1.66 26.92-4.33.86-2.66-3.74-26.5-3.74-26.5v.01z"/>
                    <path id="Vector 123" fill="#000" d="M418.583 191.333s-1.14 2.56-3.42 2.14c-2.27-.43-2.29 9.24-2.29 9.24s-1.51 1.54-2.56.2c-1.04-1.34-3.8 3.17-3.8 3.17l-17.26.77s7.67 3.82 6.15 15.3c0 0 26.06-1.66 26.92-4.33.86-2.66-3.74-26.5-3.74-26.5v.01z" opacity=".03"/>
                    <path id="Vector 124" fill="#fff" d="M368.403 212.823l4.54 4.22 37.42 8.63-4.63-5.14-37.33-7.7v-.01z"/>
                    <path id="Vector 125" fill="#fff" d="M432.953 166.133c-.63 1.03-2.42 6.29-3.91 10.88a581.7 581.7 0 00-2.3 7.18s-2.44 17.02-3.68 20.1c-1.24 3.07-.6 15.08-.6 15.08l-4.66 29.63s-2.12 15.28-5.35 24.4c-3.2 8.98-6.75 13.19-6.86 13.32 1.43-2.08 9.28-43.14 9.28-43.14l2.67-51.8s.39-4.92.78-9.13c.38-4.2 8.09-9.93 8.09-9.93l7.44-11.39c.74 1.08.24 2.96-.9 4.8z"/>
                    <path id="Vector 126" fill="#FFB0B1" d="M413.473 232.653s-10.91-.54-16.19-7.43c-5.27-6.9 12.23-2.7 12.23-2.7l4.55 1.14-.59 9v-.01z"/>
                    <path id="Vector 127" fill="#000" d="M464.303 311.503c-.59 2.24-.69 4.6-.29 6.88-11.91.88-24.65-2.64-24.65-2.64-2.38 2.35-8.63 5.82-8.63 5.82l-3.32-45.75c-2.16-6.17-2.95-38.48-2.95-38.48l.48-4.22c0-.06 0-.13.03-.2.86-7.06 2.57-20.34 3.4-22.14 1.15-2.46-3.48-9.03-3.48-9.03l2.15-19.5.26-2.35c4.46-2.14 7.89-9 7.89-9l2.63-4.97c2.85-1.97 2.96 17.42 2.96 17.42l-2.94 45.77 9.44-2.79s18.64 79.34 17.02 85.18z" opacity=".1"/>
                    <path id="Vector 128" fill="#fff" d="M476.523 314.703c-13 6.94-36.59.4-36.59.4-2.37 2.36-8.63 5.82-8.63 5.82l-3.32-45.74c-2.16-6.18-2.95-38.49-2.95-38.49s2.8-24.1 3.94-26.55c.33-.72.17-1.79-.22-2.94a40.066 40.066 0 01-2.04-17.22l.93-8.38.25-2.34c4.47-2.15 7.9-9.01 7.9-9.01l2.38-4.5 4.38-8.28 2.08-3.92.35.35 2.68 2.64 2.84 2.58c3.71 3.4 10.12 9.39 13.43 13.05 2.9 3.23 3.8 15.75 4.05 25.16.16 6.2.04 11.07.04 11.07-2.95 5.23 4.65 47.29 4.65 47.29 1.78 8.13 3.85 59.01 3.85 59.01z"/>
                    <path id="Vector 129" fill="#000" d="M451.903 170.203s-8.95 18.33-7.93 25.31c1.02 6.98 3.94 14.89 2.52 16.73a5.357 5.357 0 01-1.84 1.65c-.73.39-1.53.6-2.34.6-1.42.09-5.22 2.95-5.22 3.26 0 .3-3.51.3-6.66 1.73-3.14 1.43-7.77 2.23-7.77 2.23s-9.02-.34-9.86.59c-.84.92-1.72 6.45.07 10.87 1.79 4.42 3.78 7.72 5.29 8.32 1.5.61 11.1-2.83 18.87-3.63 7.77-.8 16.22-7.44 16.22-7.44s9.3-3.57 10.94-9.61c1.64-6.05-1.9-39.3-1.9-39.3s-2.7-15.5-10.4-11.31h.01z" opacity=".03"/>
                    <path id="Vector 130" fill="#000" d="M450.763 168.653s-8.95 18.34-7.92 25.31c1.03 6.98 3.95 14.9 2.52 16.74a5.32 5.32 0 01-1.84 1.65c-.73.4-1.52.6-2.33.6-1.43.09-5.23 2.95-5.23 3.26 0 .3-3.51.3-6.65 1.72-3.14 1.43-7.78 2.23-7.78 2.23s-9.02-.33-9.85.59c-.84.92-1.73 6.46.07 10.87 1.8 4.42 3.78 7.72 5.29 8.33 1.5.6 11.1-2.84 18.87-3.63 7.77-.8 16.22-7.44 16.22-7.44s9.3-3.57 10.92-9.61c1.62-6.04-1.91-39.3-1.91-39.3s-2.7-15.5-10.38-11.32z" opacity=".03"/>
                    <path id="Vector 131" fill="#fff" d="M451.623 169.273s-8.95 18.34-7.92 25.31c1.03 6.98 3.95 14.9 2.52 16.73a5.349 5.349 0 01-1.84 1.66 4.891 4.891 0 01-2.33.6c-1.43.09-5.23 2.95-5.23 3.25 0 .3-3.5.3-6.65 1.73-3.15 1.43-7.78 2.23-7.78 2.23s-9.02-.33-9.86.59c-.84.92-1.72 6.46.07 10.87 1.8 4.42 3.78 7.72 5.3 8.33 1.5.6 11.09-2.84 18.86-3.64 7.77-.8 16.22-7.44 16.22-7.44s9.3-3.56 10.94-9.6c1.64-6.05-1.88-39.3-1.88-39.3s-2.74-15.48-10.42-11.32z"/>
                    <path id="Vector 132" fill="#000" d="M451.323 218.533s-7.12-1.57-4.64 1.01c2.47 2.58 2.45 4.83 5.48 4.74 3.04-.1-.84-5.75-.84-5.75z" opacity=".1"/>
                    <path id="Vector 133" fill="#000" d="M463.243 273.853s-3.22 2.35 2.92 7.8c6.15 5.46-2.92-7.8-2.92-7.8z" opacity=".1"/>
                    <path id="Vector 134" fill="#000" d="M457.063 293.223c0 .3-1.17 11.3 3.1 14.06 4.25 2.76-3.1-14.06-3.1-14.06z" opacity=".1"/>
                    <path id="Vector 135" fill="#FFB0B1" d="M389.553 206.823c-3.44.12-10.87 1.23-7.03 9.02 3.39 6.9 9.12 2.31 12.34-1.17a13.11 13.11 0 00-5.31-7.85z"/>
                    <path id="Vector 136" fill="#FFB0B1" d="M394.903 214.613l.15-.16-.14.16h-.01z"/>
                    <path id="Vector 137" fill="#000" d="M450.503 159.433a654.11 654.11 0 00-7.31 5.42c-1.64 1.31-4.77 9-6.79 12.91-1.6 3.16-6.8 3.95-8.76 4.15l.25-2.35c4.46-2.14 7.9-9 7.9-9l8.84-16.7 3.03 3 2.84 2.57z" opacity=".1"/>
                    <path id="Vector 138" fill="#DCE7FF" d="M450.503 159.123c-2.451 1.79-4.888 3.6-7.31 5.43-1.64 1.3-4.77 8.99-6.78 12.9-1.61 3.16-6.81 3.96-8.77 4.15l.25-2.35c4.47-2.14 7.9-9 7.9-9l8.84-16.7 3.03 2.98s1.13 1.02 2.84 2.6v-.01z"/>
                    <path id="Vector 139" fill="#FFB0B1" d="M443.513 146.013c0 3.08-.87 6.1-2.5 8.63-1.91 3-4.76 5.15-8.01 6.07-3.26.92-6.72.55-9.75-1.05a14.798 14.798 0 01-6.75-7.67 16.416 16.416 0 01-.5-10.58c1-3.48 3.12-6.46 5.98-8.38a13.199 13.199 0 019.6-2.13c3.32.56 6.36 2.39 8.55 5.16 2.19 2.77 3.39 6.3 3.38 9.95z"/>
                    <path id="Vector 140" fill="#000" d="M467.983 197.353a13.204 13.204 0 01-4.54-5.3c-.79-1.7-1.3-3.66-2.66-4.87-1.22-1.08-2.85-1.35-4.36-1.84-5-1.61-9.17-6.56-9.31-12.19-.08-2.65.7-5.3.35-7.92a9.187 9.187 0 00-1.57-4.1c-.42-.56-.88-1.1-1.37-1.6-.67-.68-1.36-1.34-1.97-2.06a8.006 8.006 0 01-1.53-2.83c-.95-3.15-.08-6.87-1.11-10.06l-.06-.17c-.4-1.13-1.2-2.27-2.3-2.36-1.12-.09-2.08.91-3.14 1.35-2.23.93-4.63-.67-6.48-2.3-1.86-1.63-3.95-3.49-6.3-3.14-1.57.24-2.8 1.39-4.24 1.98-.33.13-.67.24-1 .31a14.91 14.91 0 016.33-7.69 13.146 13.146 0 019.42-1.55c3.2.68 6.1 2.55 8.17 5.29a16.034 16.034 0 012.89 12.9l.07.2c.55 1.55 1.17 3.13 1.71 4.5l2.68 2.64 2.84 2.58c3.71 3.4 10.12 9.39 13.43 13.05 2.9 3.24 3.79 15.75 4.05 25.17v.01z" opacity=".1"/>
                    <path id="Vector 141" fill="#0C1323" d="M417.243 130.553c.68-1.5 1.02-3.17 1.84-4.58 1.2-2.05 3.27-3.36 5.41-4.15 5.58-2.07 17.38-5.05 20.89.06.69 1.03 1.26 2.17 2.22 2.88.73.55 1.61.78 2.41 1.19 2.25 1.15 3.67 3.64 4.43 6.18.76 2.54.99 5.26 1.54 7.88.71 3.36 1.96 6.54 3.2 9.7 1.48 3.74 3.04 7.62 5.88 10.26 3.88 3.61 4.73 8.7 8.33 12.66 4.26 4.7 4.1 12.44 1.89 18.57-.3.8-.62 1.65-.5 2.5.1.87.7 1.65 1.25 2.33l2.32 2.86c-5.52 1.43-11.77-1.71-14.33-7.2-.8-1.7-1.31-3.66-2.67-4.87-1.21-1.08-2.84-1.34-4.36-1.83-4.99-1.62-9.16-6.57-9.31-12.2-.07-2.65.7-5.3.36-7.92a9.14 9.14 0 00-1.58-4.11c-1.3-1.85-3.27-3.1-4.33-5.15-1.8-3.45-.42-7.9-1.7-11.6-.4-1.13-1.2-2.27-2.31-2.36-1.12-.09-2.07.91-3.14 1.36-2.23.92-4.63-.67-6.48-2.3-1.85-1.64-3.94-3.5-6.3-3.14-1.57.23-2.8 1.38-4.24 1.98-1.06.43-3.22.82-4.15-.15-1.96-1.96 2.6-7.02 3.43-8.85z"/>
                    <path id="Vector 142" fill="#000" d="M465.343 189.993c-.8-1.7-1.31-3.65-2.67-4.85-1.2-1.09-2.84-1.35-4.36-1.84-4.98-1.62-9.16-6.57-9.31-12.2-.07-2.65.7-5.3.36-7.92a9.19 9.19 0 00-1.58-4.09c-1.3-1.85-3.27-3.1-4.33-5.15-1.8-3.44-.41-7.9-1.7-11.6-.4-1.12-1.2-2.26-2.31-2.35-1.11-.1-2.08.91-3.14 1.35-2.22.93-4.63-.67-6.48-2.3-1.84-1.63-3.94-3.49-6.3-3.14-1.56.24-2.8 1.39-4.24 1.98-1.06.44-3.22.83-4.15-.14-1.95-2.06 2.61-7.11 3.43-8.93.68-1.5 1.02-3.17 1.84-4.58l.14-.23a7.974 7.974 0 00-1.56 1.92c-.82 1.41-1.16 3.07-1.84 4.58-.83 1.82-5.39 6.88-3.43 8.92.94.98 3.08.59 4.14.15 1.43-.6 2.68-1.74 4.24-1.97 2.37-.36 4.46 1.5 6.3 3.13 1.85 1.63 4.27 3.23 6.49 2.3 1.06-.44 2-1.45 3.13-1.35 1.14.1 1.9 1.22 2.31 2.35 1.29 3.7-.09 8.16 1.7 11.6 1.06 2.03 3.03 3.3 4.33 5.15a9.14 9.14 0 011.58 4.12c.35 2.62-.43 5.27-.35 7.91.14 5.65 4.32 10.59 9.3 12.2 1.51.5 3.15.75 4.37 1.84 1.36 1.2 1.89 3.16 2.66 4.86 2.57 5.5 8.81 8.64 14.34 7.2l-1.1-1.34c-4.79.06-9.63-2.9-11.8-7.58h-.01z" opacity=".1"/>
                    <path id="Vector 143" fill="#000" d="M432.663 166.453c-.62 1.02-2.41 6.27-3.9 10.86-1.4-.59-2.65-4.33-2.65-4.33l7.44-11.4c.75 1.14.25 3.01-.89 4.86v.01z" opacity=".1"/>
                    <path id="Vector 144" fill="#DCE7FF" d="M432.953 166.133c-.63 1.03-2.42 6.29-3.91 10.88-1.4-.59-2.65-4.33-2.65-4.33l7.44-11.4c.76 1.13.26 3.01-.88 4.85z"/>
                    <path id="Vector 145" fill="#BE8B87" d="M389.733 218.503l-4.09-14.05a1.4 1.4 0 01.08-1c.08-.15.18-.29.3-.4a1.134 1.134 0 011.34-.16c.28.17.5.44.6.77l4.07 14.03-.41 2.94-1.9-2.13h.01z"/>
                    <path id="Vector 146" fill="#fff" d="M386.043 203.223c.3-.1.63-.07.92.09.28.16.5.44.6.77l4.08 14.03-.31 2.2.3.34.4-2.94-4.1-14.03a1.297 1.297 0 00-.6-.76c-.28-.16-.6-.2-.92-.1-.25.1-.48.28-.63.52.08-.05.17-.09.25-.12h.01z" opacity=".1"/>
                    <path id="Vector 147" fill="#EFC8C4" d="M389.733 218.503l2.3-.79-.34 2.4-.07.54-.67-.76-1.23-1.4.01.01z"/>
                    <path id="Vector 148" fill="#727A9C" d="M390.953 219.893c.04-.06.09-.1.14-.14a.203.203 0 01.23 0l.08.14a.423.423 0 00.3.21l-.08.52-.67-.73z"/>
                    <path id="Vector 149" fill="#FFB0B1" d="M385.603 209.443s8.25-.03 6.3 3.76c-1.94 3.8-4.98 4.24-4.98 4.24l-1.31-8h-.01z"/>
                  </g>
                  <path id="Vector 150" fill="#F10606" d="M528.933 262.983l-26.44-.08.12-59.41 14.31.04c7.37 18.75 12.03 39.32 12.01 59.45z" opacity=".1"/>
                  <path id="Vector 151" fill="#F10606" d="M502.483 265.093l26.43.09c-.26 14.43-2.97 28.6-8.85 41.67a100.641 100.641 0 01-19.72 28.64l.1-45.22h2l.05-25.18h-.01z" opacity=".1"/>
                </g>
                <g id="heart">
                  <path id="Vector 152" fill="url(#paint2_linear)" d="M339.903 43.953h-.37c-14.16-.05-26.7 8.02-33.94 19.98-7.18-12-19.69-20.15-33.86-20.2h-.35c-10.63.08-20.8 4.7-28.3 12.85-7.5 8.15-11.73 19.18-11.76 30.68-.03 14.3 5.71 34.59 16.95 51.31 21.42 31.86 57.04 59.78 57.04 59.78s35.75-27.7 57.29-59.43c11.31-16.65 17.13-36.9 17.16-51.2.02-11.5-4.16-22.56-11.62-30.76-7.47-8.2-17.62-12.87-28.25-13.02l.01.01zm-5.3 97.33a7.587 7.587 0 01-4.52-1.55 8.597 8.597 0 01-2.91-4.03l-8.47-.03c-.56 0-1.1-.2-1.55-.55a2.905 2.905 0 01-.97-1.43l-2.58-8.5-8.3 31.12a2.9 2.9 0 01-.96 1.5c-.46.37-1.02.57-1.6.57h-.16a2.528 2.528 0 01-1.63-.72 2.911 2.911 0 01-.84-1.67l-8.37-55.26-6.26 32.67a2.89 2.89 0 01-.94 1.56c-.47.4-1.05.6-1.64.6l-11.93-.03a2.476 2.476 0 01-1.94-.8 2.894 2.894 0 01-.82-2.08 3.066 3.066 0 01.82-2.07 2.5 2.5 0 011.95-.79l9.85.03 8.87-43.92c.15-.65.5-1.22.99-1.62a2.52 2.52 0 013.38.16c.46.45.76 1.05.85 1.71l8.55 56.37 7.43-27.83c.16-.59.48-1.1.93-1.47.45-.37 1-.58 1.56-.58h.05c.56 0 1.1.2 1.56.55.45.36.78.86.96 1.43l4.67 15.33 6.44.02a8.674 8.674 0 012.42-3.86 7.398 7.398 0 018.21-1.36 8.102 8.102 0 013.38 2.91 9.202 9.202 0 01.62 8.97 8.372 8.372 0 01-2.93 3.42 7.505 7.505 0 01-4.16 1.25l-.02-.02h.01z"/>
                </g>
              </g>
            </g>
            <defs>
              <linearGradient id="paint0_linear" x1="173.193" x2="174.153" y1="415.203" y2="98.993" gradientUnits="userSpaceOnUse">
                <stop stop-color="gray" stop-opacity=".25"/>
                <stop offset=".54" stop-color="gray" stop-opacity=".12"/>
                <stop offset="1" stop-color="gray" stop-opacity=".1"/>
              </linearGradient>
              <linearGradient id="paint1_linear" x1="105708" x2="106205" y1="238060" y2="76334.7" gradientUnits="userSpaceOnUse">
                <stop stop-color="gray" stop-opacity=".25"/>
                <stop offset=".54" stop-color="gray" stop-opacity=".12"/>
                <stop offset="1" stop-color="gray" stop-opacity=".1"/>
              </linearGradient>
              <linearGradient id="paint2_linear" x1="305.633" x2="305.163" y1="43.843" y2="198.363" gradientUnits="userSpaceOnUse">
                <stop stop-color="#F10606"/>
                <stop offset="1" stop-color="#5E1010" stop-opacity=".57"/>
              </linearGradient>
              <clipPath id="clip0">
                <path fill="#fff" d="M0 0h539v420H0z"/>
              </clipPath>
            </defs>
         <style>
           #heart {
                animation: heart 1.5s infinite linear;
                transform-origin: center;
                transform-box: fill-box;
                }
                @keyframes heart {
                    0% {
                        transform: scale(0.4);
                    }
                    50% {
                        transform: scale(0.6);
                    }
                    100% {
                        transform: scale(0.4);
                    }
                }
         
         </style>  
          </svg>
         