<svg height="512" viewBox="0 0 60 60" width="512" xmlns="http://www.w3.org/2000/svg"><g id="032---Blood-Transfusion" fill="none"><path id="Shape" d="m42 34.7c.0822466 6.7100214-5.2899933 12.2165673-12 12.3-6.7100067-.0834327-12.0822466-5.5899786-12-12.3 0-7.988 9.327-18.995 11.535-21.49.1168171-.134959.2865058-.2125078.465-.2125078s.3481829.0775488.465.2125078c2.208 2.497 11.535 13.504 11.535 21.49z" fill="#c03a2b"/><path id="Shape" d="m40.588 32.149c.0914848 3.8428171-1.9063289 7.4335333-5.2198955 9.3818374-3.3135667 1.9483041-7.4226423 1.9483041-10.736209 0-3.3135666-1.9483041-5.3113803-5.5390203-5.2198955-9.3818374 0-7.049 8.229-16.761 10.178-18.962.1031328-.1187704.2527016-.1869817.41-.1869817s.3068672.0682113.41.1869817c1.949 2.201 10.178 11.913 10.178 18.962z" fill="#e64c3c"/><path id="Shape" d="m22 35.7c-.5522847 0-1-.4477153-1-1 0-5.426 5.745-13.3 8.215-16.43.3421404-.4335435.9709565-.5076404 1.4045-.1655s.5076404.9709565.1655 1.4045c-4.802 6.091-7.785 11.914-7.785 15.191 0 .5522847-.4477153 1-1 1z" fill="#fb7b76"/><path id="Shape" d="m24 41.185c-.2929836-.0001877-.5711467-.1288518-.761-.352-.3526761-.4141509-.6682264-.8585313-.943-1.328-.1946569-.3088382-.2055489-.69921-.0284157-1.0184218.1771331-.3192119.5141399-.5165318.8792006-.5147784.3650606.0017535.7001564.2023016.8742151.5232002.2159696.3681441.4635705.7167929.74 1.042.2525579.296849.3096345.7133876.1462386 1.067233-.1633959.3538455-.517489.5805175-.9072386.580767z" fill="#fb7b76"/><g fill="#26b99a"><path id="Shape" d="m55.693 27c-.4927448-.0006043-.9116104-.3600562-.987-.847-1.9585124-12.1416554-12.4075714-21.08802252-24.706-21.153-.5522847 0-1-.44771525-1-1s.4477153-1 1-1c13.2827277.07097333 24.5676987 9.7335949 26.683 22.847.044714.2888045-.0391462.5827167-.229527.804443s-.468228.3490755-.760473.348557z"/><path id="Shape" d="m4 31c-.55228475 0-1-.4477153-1-1 .07097333-13.2827277 9.7335949-24.56769868 22.847-26.683.5459335-.08449955 1.0570004.28956654 1.1415.8355.0844995.54593347-.2895665 1.05700042-.8355 1.1415-12.1416554 1.95851242-21.08802252 12.4075714-21.153 24.706 0 .5522847-.44771525 1-1 1z"/><path id="Shape" d="m30 57c-13.2827277-.0709733-24.56769868-9.7335949-26.683-22.847-.08449955-.5459335.28956654-1.0570004.8355-1.1415.54593347-.0844995 1.05700042.2895665 1.1415.8355 1.95851242 12.1416554 12.4075714 21.0880225 24.706 21.153.5522847 0 1 .4477153 1 1s-.4477153 1-1 1z"/><path id="Shape" d="m33.012 55.847c-.0843698-.5456257.2894121-1.0563863.835-1.141 12.1416554-1.9585124 21.0880225-12.4075714 21.153-24.706 0-.5522847.4477153-1 1-1s1 .4477153 1 1c-.0709733 13.2827277-9.7335949 24.5676987-22.847 26.683-.2621743.0404989-.5296971-.0248365-.7436888-.1816262-.2139918-.1567898-.3569142-.3921838-.3973112-.6543738z"/><path id="Shape" d="m34 8c-.45 0-.2.1-4.6-3.2-.2518058-.18885438-.4-.4852427-.4-.8s.1481942-.61114562.4-.8l4-3c.4418278-.33137085 1.0686292-.2418278 1.4.2s.2418278 1.06862915-.2 1.4l-2.933 2.2 2.933 2.2c.3443443.25825824.4847973.70788563.3486833 1.11622777s-.5182529.68377223-.9486833.68377223z"/><path id="Shape" d="m26 60c-.4304304 0-.8125693-.2754301-.9486833-.6837722-.136114-.4083422.004339-.8579696.3486833-1.1162278l2.933-2.2-2.933-2.2c-.4418278-.3313708-.5313708-.9581722-.2-1.4s.9581722-.5313708 1.4-.2l4 3c.2518058.1888544.4.4852427.4.8s-.1481942.6111456-.4.8c-4.265 3.2-4.14 3.2-4.6 3.2z"/><path id="Shape" d="m59 35c-.3147573 0-.6111456-.1481942-.8-.4l-2.2-2.933-2.2 2.933c-.3313708.4418278-.9581722.5313708-1.4.2s-.5313708-.9581722-.2-1.4l3-4c.1967934-.2391708.4902738-.3777478.8-.3777478s.6032066.138577.8.3777478l3 4c.2272632.3030176.2638192.7084296.0944272 1.0472136s-.5156551.5527864-.8944272.5527864z"/><path id="Shape" d="m3.2 30.6-3-4c-.21435936-.2858125-.25995644-.6642734-.11961525-.9928203.14034118-.3285469.44529946-.5572656.8-.6.35470055-.0427344.7052559.1070078.91961525.3928203l2.2 2.933 2.2-2.933c.33137085-.4418278.9581722-.5313708 1.4-.2s.53137085.9581722.2 1.4l-3 4c-.18885438.2518058-.4852427.4-.8.4s-.61114562-.1481942-.8-.4z"/></g></g></svg>