<svg id="Capa_1" enable-background="new 0 0 512 512" height="512" viewBox="0 0 512 512" width="512" xmlns="http://www.w3.org/2000/svg"><g><path d="m421.49 433.67c0 43.19-35.14 78.33-78.33 78.33h-174.32c-43.19 0-78.33-35.14-78.33-78.33 0-43.2 35.14-78.34 78.33-78.34h174.32c43.19 0 78.33 35.14 78.33 78.34z" fill="#f9c4b9"/><path d="m421.49 433.67c0 43.19-35.14 78.33-78.33 78.33h-87.16v-156.67h87.16c43.19 0 78.33 35.14 78.33 78.34z" fill="#ffb19e"/><path d="m424.04 278.66c0 92.45-75.38 167.67-168.04 167.67s-168.04-75.22-168.04-167.67c0-36.25 12.03-72.15 33.88-101.07l134.16-177.59 134.16 177.59c21.85 28.92 33.88 64.81 33.88 101.07z" fill="#fe4e28"/><path d="m424.04 278.66c0 92.45-75.38 167.67-168.04 167.67v-446.33l134.16 177.59c21.85 28.92 33.88 64.81 33.88 101.07z" fill="#ce0102"/><path d="m361.42 278.96c0 58.12-47.29 105.41-105.42 105.41s-105.42-47.29-105.42-105.41c0-58.13 47.29-105.42 105.42-105.42s105.42 47.29 105.42 105.42z" fill="#f5fbff"/><path d="m361.42 278.96c0 58.12-47.29 105.41-105.42 105.41v-210.83c58.13 0 105.42 47.29 105.42 105.42z" fill="#cbe1fa"/><path d="m302.08 264.63v30h-31.08v31.09h-30v-31.09h-31.08v-30h31.08v-31.08h30v31.08z" fill="#fe4e28"/><path d="m271 325.72h-15v-92.17h15v31.08h31.08v30h-31.08z" fill="#ce0102"/></g></svg>