<svg viewBox="-1 0 512 512.00002" xmlns="http://www.w3.org/2000/svg"><path d="m309.355469 21.171875-132.347657 105.441406v183.386719l128.042969 66.234375 139.804688-70.671875v-176.976562zm0 0" fill="#fed953"/><path d="m444.855469 128.585938-134.75-106.820313v351.914063l134.75-68.117188zm0 0" fill="#fdc417"/><path d="m375.933594 150.214844c-18.125-18.121094-47.527344-18.261719-65.828125-.414063-18.296875-17.847656-47.703125-17.710937-65.828125.414063-18.261719 18.265625-18.261719 47.984375 0 66.25l65.828125 65.828125 65.828125-65.828125c18.261718-18.265625 18.261718-47.984375 0-66.25zm0 0" fill="#ff8597"/><path d="m463.375 161.214844-153.269531-122.84375-153.269531 122.84375-18.722657-23.363282 171.992188-137.851562 171.992187 137.851562zm0 0" fill="#ff193d"/><path d="m310.105469 0v38.371094l153.269531 122.84375 18.722656-23.363282zm0 0" fill="#dc0812"/><path d="m375.933594 150.214844c-18.125-18.121094-47.527344-18.261719-65.828125-.414063v132.492188l65.828125-65.828125c18.261718-18.265625 18.261718-47.984375 0-66.25zm0 0" fill="#ff3f5c"/><path d="m506.335938 304.15625c-5.667969-13.25-16.085938-23.390625-29.324219-28.546875-12.988281-5.058594-27.144531-4.6875-39.863281 1.046875l-116.941407 52.738281c-7.164062-15.699219-21.667969-27.4375-39.777343-30.195312l-134.101563-20.394531c-36.289063-5.523438-73.714844 6.746093-100.140625 32.816406l-46.1875 44.5625v154.800781h18.3125l.824219 1.015625 96.84375-78.226562 194.125 27.5 169.414062-86.851563c26.289063-11.863281 38.316407-43.382813 26.816407-70.265625zm0 0" fill="#f9ced7"/><path d="m506.335938 304.15625c-5.667969-13.25-16.085938-23.390625-29.324219-28.546875-12.988281-5.058594-27.144531-4.6875-39.863281 1.046875l-116.941407 52.738281c-2.511719-5.507812-5.945312-10.511719-10.101562-14.824219v146.703126l169.414062-86.851563c26.289063-11.863281 38.316407-43.382813 26.816407-70.265625zm0 0" fill="#f6b9c4"/><path d="m272.832031 405.480469c-2.601562 0-5.222656-.199219-7.84375-.597657l-126.335937-19.214843 4.503906-29.597657 126.335938 19.214844c5.835937.886719 11.675781-.632812 16.4375-4.277344 5.085937-3.894531 8.300781-9.640624 9.042968-16.1875 1.453125-12.746093-6.914062-24.175781-19.042968-26.019531l-134.105469-20.398437c-27.417969-4.171875-54.628907 4.789062-74.660157 24.582031l-.125.125-67.039062 63.121094v-40.046875l46.191406-44.5625c26.425782-26.070313 63.847656-38.339844 100.136719-32.816406l134.105469 20.394531c28.117187 4.277343 47.570312 30.195312 44.289062 59.007812-1.648437 14.492188-9.15625 27.820313-20.59375 36.574219-9.164062 7.015625-20.054687 10.699219-31.296875 10.699219zm0 0" fill="#f6b9c4"/><path d="m310.105469 314.539062v74.886719c8.054687-8.410156 13.273437-19.429687 14.617187-31.21875 1.910156-16.769531-3.894531-32.550781-14.617187-43.667969zm0 0" fill="#ff8597"/></svg>