<svg width="897" height="887" viewBox="0 0 897 887" fill="none" xmlns="http://www.w3.org/2000/svg">
<g clip-path="url(#clip0)">
<path d="M896.25 483.17H412.36V787.12H896.25V483.17Z" fill="url(#paint0_linear)"/>
<path d="M890.17 490.73H412.36V774.4H890.17V490.73Z" fill="white"/>
<g opacity="0.6">
<path opacity="0.6" d="M869.51 512.34H808.72V557.32H869.51V512.34Z" fill="#536DFE"/>
<path opacity="0.6" d="M819.66 630.28H586.23V644.87H819.66V630.28Z" fill="#536DFE"/>
<path opacity="0.6" d="M756.44 666.75H586.23V676.48H756.44V666.75Z" fill="#536DFE"/>
</g>
<path d="M514.22 53.35H106.26C100.737 53.35 96.26 57.8272 96.26 63.35V803.29C96.26 808.813 100.737 813.29 106.26 813.29H514.22C519.743 813.29 524.22 808.813 524.22 803.29V63.35C524.22 57.8272 519.743 53.35 514.22 53.35Z" fill="url(#paint1_linear)"/>
<path d="M501.22 65.74H117.25C111.727 65.74 107.25 70.2171 107.25 75.74V778.89C107.25 784.413 111.727 788.89 117.25 788.89H501.22C506.743 788.89 511.22 784.413 511.22 778.89V75.74C511.22 70.2171 506.743 65.74 501.22 65.74Z" fill="white"/>
<path d="M465.61 116.86H152.86V705.35H465.61V116.86Z" fill="#6C63FF"/>
<path d="M28.17 477.63L652.82 176.11" stroke="white" stroke-width="7" stroke-miterlimit="10"/>
<path d="M195.68 2.10999L414.35 291.22" stroke="white" stroke-width="7" stroke-miterlimit="10"/>
<path d="M15.2 105.86L241.32 374.74" stroke="white" stroke-width="7" stroke-miterlimit="10"/>
<path d="M176.63 405.97L530.7 883.98" stroke="white" stroke-width="7" stroke-miterlimit="10"/>
<path d="M2.23001 813.73L297.46 569.09" stroke="white" stroke-width="7" stroke-miterlimit="10"/>
<path d="M575.01 433.32L353.05 644.14" stroke="white" stroke-width="7" stroke-miterlimit="10"/>
<path d="M309.24 772.69C323.014 772.69 334.18 761.524 334.18 747.75C334.18 733.976 323.014 722.81 309.24 722.81C295.466 722.81 284.3 733.976 284.3 747.75C284.3 761.524 295.466 772.69 309.24 772.69Z" fill="#DBDBDB"/>
<path d="M261.86 94.42C264.616 94.42 266.85 92.1859 266.85 89.43C266.85 86.6741 264.616 84.44 261.86 84.44C259.104 84.44 256.87 86.6741 256.87 89.43C256.87 92.1859 259.104 94.42 261.86 94.42Z" fill="#DBDBDB"/>
<path d="M360.1 85.69H285.8C284.972 85.69 284.3 86.3616 284.3 87.19V91.67C284.3 92.4984 284.972 93.17 285.8 93.17H360.1C360.928 93.17 361.6 92.4984 361.6 91.67V87.19C361.6 86.3616 360.928 85.69 360.1 85.69Z" fill="#DBDBDB"/>
<path d="M378.33 360.79C378.33 398.88 309.33 506.79 309.33 506.79C309.33 506.79 240.33 398.93 240.33 360.79C240.036 351.549 241.601 342.342 244.935 333.718C248.268 325.093 253.301 317.227 259.734 310.585C266.167 303.944 273.869 298.663 282.383 295.057C290.897 291.451 300.049 289.593 309.295 289.593C318.541 289.593 327.693 291.451 336.207 295.057C344.721 298.663 352.423 303.944 358.856 310.585C365.289 317.227 370.322 325.093 373.655 333.718C376.989 342.342 378.554 351.549 378.26 360.79H378.33Z" fill="url(#paint2_linear)"/>
<path d="M309.36 376.83C320.875 376.83 330.21 367.495 330.21 355.98C330.21 344.465 320.875 335.13 309.36 335.13C297.845 335.13 288.51 344.465 288.51 355.98C288.51 367.495 297.845 376.83 309.36 376.83Z" fill="url(#paint3_linear)"/>
<path d="M363.11 369.32C363.11 399 309.36 483.06 309.36 483.06C309.36 483.06 255.61 398.97 255.61 369.32C255.513 362.2 256.831 355.133 259.489 348.527C262.146 341.921 266.089 335.909 271.09 330.84C276.09 325.771 282.048 321.746 288.617 318.999C295.185 316.252 302.235 314.837 309.355 314.837C316.475 314.837 323.525 316.252 330.093 318.999C336.662 321.746 342.62 325.771 347.62 330.84C352.621 335.909 356.564 341.921 359.221 348.527C361.879 355.133 363.197 362.2 363.1 369.32H363.11Z" fill="#FF5252"/>
<path d="M309.36 381.79C318.335 381.79 325.61 374.515 325.61 365.54C325.61 356.565 318.335 349.29 309.36 349.29C300.385 349.29 293.11 356.565 293.11 365.54C293.11 374.515 300.385 381.79 309.36 381.79Z" fill="white"/>
</g>
<defs>
<linearGradient id="paint0_linear" x1="654.31" y1="787.12" x2="654.31" y2="483.17" gradientUnits="userSpaceOnUse">
<stop stop-color="#808080" stop-opacity="0.25"/>
<stop offset="0.54" stop-color="#808080" stop-opacity="0.12"/>
<stop offset="1" stop-color="#808080" stop-opacity="0.1"/>
</linearGradient>
<linearGradient id="paint1_linear" x1="132867" y1="618097" x2="132867" y2="40596.1" gradientUnits="userSpaceOnUse">
<stop stop-color="#808080" stop-opacity="0.25"/>
<stop offset="0.54" stop-color="#808080" stop-opacity="0.12"/>
<stop offset="1" stop-color="#808080" stop-opacity="0.1"/>
</linearGradient>
<linearGradient id="paint2_linear" x1="309.36" y1="506.75" x2="309.36" y2="291.83" gradientUnits="userSpaceOnUse">
<stop stop-opacity="0.12"/>
<stop offset="0.55" stop-opacity="0.09"/>
<stop offset="1" stop-opacity="0.02"/>
</linearGradient>
<linearGradient id="paint3_linear" x1="13188.8" y1="16048.9" x2="13188.8" y2="14310" gradientUnits="userSpaceOnUse">
<stop stop-opacity="0.12"/>
<stop offset="0.55" stop-opacity="0.09"/>
<stop offset="1" stop-opacity="0.02"/>
</linearGradient>
<clipPath id="clip0">
<rect width="896.26" height="886.06" fill="white"/>
</clipPath>
</defs>
</svg>
